<svg id="Group_7" data-name="Group 7" xmlns="http://www.w3.org/2000/svg" xmlns:xlink="http://www.w3.org/1999/xlink" width="9.26" height="17.164" viewBox="0 0 9.26 17.164">
  <defs>
    <clipPath id="clip-path">
      <rect id="Rectangle_10" data-name="Rectangle 10" width="9.26" height="17.164" fill="#b5c9ff"/>
    </clipPath>
  </defs>
  <g id="Group_6" data-name="Group 6" clip-path="url(#clip-path)">
    <path id="Path_8" data-name="Path 8" d="M2.583,9.688h-.4c-.573,0-1.147,0-1.72,0-.342,0-.456-.1-.459-.431q-.013-1.321,0-2.642c0-.326.124-.427.462-.428.622,0,1.244,0,1.866,0h.249c0-.1,0-.184,0-.266.015-.8-.014-1.6.053-2.388A3.771,3.771,0,0,1,6.341.018C7.178-.014,8.018,0,8.857.007c.278,0,.4.12.4.4q.007,1.248,0,2.5c0,.283-.118.4-.42.4-.566.014-1.132.014-1.7.023-.657.01-.917.258-.928.915-.011.621,0,1.242,0,1.886.087,0,.161.011.234.011H8.6c.469,0,.572.1.572.562q0,1.237,0,2.475c0,.386-.1.484-.483.486-.741,0-1.482,0-2.223,0H6.207v.28q0,3.282,0,6.564c0,.589-.069.656-.665.656H3.13c-.444,0-.546-.1-.547-.54q0-3.324,0-6.648V9.688" transform="translate(0 0)" fill="#b5c9ff"/>
  </g>
</svg>
