<svg id="Group_5" data-name="Group 5" xmlns="http://www.w3.org/2000/svg" xmlns:xlink="http://www.w3.org/1999/xlink" width="18.492" height="18.497" viewBox="0 0 18.492 18.497">
  <defs>
    <clipPath id="clip-path">
      <rect id="Rectangle_9" data-name="Rectangle 9" width="18.492" height="18.497" fill="#b5c9ff"/>
    </clipPath>
  </defs>
  <g id="Group_4" data-name="Group 4" clip-path="url(#clip-path)">
    <path id="Path_7" data-name="Path 7" d="M8.7,0H9.714c.071.01.141.021.212.03.292.035.587.056.877.105a9.037,9.037,0,0,1,3.377,1.3c.237.15.464.318.7.483L12.737,4.7a5.725,5.725,0,1,0-2.29,10.14,5.629,5.629,0,0,0,4.212-3.834h-5.4V7.484h9c.078,0,.156,0,.234-.006V9.79c-.011.064-.024.128-.033.192-.058.4-.091.8-.176,1.194a8.983,8.983,0,0,1-3.432,5.411A8.969,8.969,0,0,1,7.3,18.28a8.928,8.928,0,0,1-5.385-3.408A8.993,8.993,0,0,1,.047,8.323,8.935,8.935,0,0,1,2.3,3.153,9.08,9.08,0,0,1,7.651.145C8,.083,8.352.048,8.7,0" transform="translate(0 -0.001)" fill="#b5c9ff"/>
  </g>
</svg>
