<svg xmlns="http://www.w3.org/2000/svg" width="294.07" height="148.518" viewBox="0 0 294.07 148.518">
  <g id="Times_Network_logo" data-name="Times Network logo" transform="translate(-70.02 -305.93)">
    <g id="Group_905" data-name="Group 905" transform="translate(113.361 438.209)">
      <path id="Path_300" data-name="Path 300" d="M146.731,519.406l-8.575-8.776H137.09v16.02h3.418V517.88l8.575,8.989h1.066V510.636h-3.418Z" transform="translate(-137.09 -510.63)" fill="#ec1b2e"/>
      <path id="Path_301" data-name="Path 301" d="M170.126,510.63a8.111,8.111,0,1,0,8.246,8.11A8.093,8.093,0,0,0,170.126,510.63Zm0,12.9a4.793,4.793,0,1,1,4.588-4.788A4.54,4.54,0,0,1,170.126,523.528Z" transform="translate(-145.86 -510.63)" fill="#ec1b2e"/>
      <path id="Path_302" data-name="Path 302" d="M203.551,518.927l-3.7-8.3h-.956l-3.683,8.3-2.792-8.3H188.63l5.719,16.213h.963l4.052-9.338,3.961,9.338h.989l5.6-16.213h-3.632Z" transform="translate(-155.324 -510.63)" fill="#ec1b2e"/>
      <path id="Path_303" data-name="Path 303" d="M242.449,510.63a8.11,8.11,0,1,0,8.149,8.11A8.042,8.042,0,0,0,242.449,510.63Zm0,12.9a4.8,4.8,0,1,1,4.536-4.788A4.518,4.518,0,0,1,242.449,523.528Z" transform="translate(-171.482 -510.63)" fill="#ec1b2e"/>
      <path id="Path_304" data-name="Path 304" d="M275.644,516.986c0-3.916-2.682-6.346-7-6.346H264.18v16.233H267.8v-3.58h.84c.265,0,.53-.013.775-.032l2.527,3.612h4.349l-3.328-4.679a5.807,5.807,0,0,0,2.688-5.208Zm-7.845-2.992h.75c2.359,0,3.412.924,3.412,2.992S270.907,520,268.548,520h-.75Z" transform="translate(-182.053 -510.634)" fill="#ec1b2e"/>
      <path id="Path_305" data-name="Path 305" d="M306.461,519.409l-8.575-8.769H296.82v16.233h3.418v-8.7l8.575,8.7h1.066V510.64h-3.418Z" transform="translate(-193.601 -510.634)" fill="#ec1b2e"/>
      <path id="Path_306" data-name="Path 306" d="M329.909,510.63a8.11,8.11,0,1,0,8.149,8.11A8.042,8.042,0,0,0,329.909,510.63Zm0,12.9a4.8,4.8,0,1,1,4.536-4.788A4.513,4.513,0,0,1,329.909,523.528Z" transform="translate(-202.425 -510.63)" fill="#ec1b2e"/>
      <path id="Path_307" data-name="Path 307" d="M348.73,513.955h4.381v12.918h3.574V513.955h4.388V510.64H348.73Z" transform="translate(-211.967 -510.634)" fill="#ec1b2e"/>
      <path id="Path_308" data-name="Path 308" d="M381.952,518.828h-5.829V510.64H372.55v16.233h3.574v-4.737h5.829v4.737h3.574V510.64h-3.574Z" transform="translate(-220.394 -510.634)" fill="#ec1b2e"/>
      <rect id="Rectangle_345" data-name="Rectangle 345" width="3.574" height="16.233" transform="translate(168.893 0.006)" fill="#ec1b2e"/>
      <path id="Path_309" data-name="Path 309" d="M419.451,519.409l-8.575-8.769H409.81v16.233h3.418V518.1l8.575,8.769h1.066V510.64h-3.418Z" transform="translate(-233.576 -510.634)" fill="#ec1b2e"/>
      <path id="Path_310" data-name="Path 310" d="M442.188,517.765v3.276h3.91v1.848a5.85,5.85,0,0,1-2.921.653,4.548,4.548,0,0,1-4.814-4.788c0-2.863,1.861-4.788,4.427-4.788a4.2,4.2,0,0,1,3.561,1.538l.427.465,2.481-2.346-.4-.446a7.463,7.463,0,0,0-6-2.527,7.932,7.932,0,0,0-8.11,8.11,8.092,8.092,0,0,0,8.433,8.11,9.042,9.042,0,0,0,6.061-2.048l.226-.187v-6.856h-7.263Z" transform="translate(-242.4 -510.637)" fill="#ec1b2e"/>
    </g>
    <path id="Path_311" data-name="Path 311" d="M173.867,364.009H162.39V354.62h34.533v9.389h-11.47v32.323H173.867Z" transform="translate(-32.68 -17.226)" fill="#223f99"/>
    <path id="Path_312" data-name="Path 312" d="M224.82,354.62h11.606v41.713H224.82Z" transform="translate(-54.767 -17.226)" fill="#223f99"/>
    <path id="Path_313" data-name="Path 313" d="M331.45,354.62H360.7v9.389H342.61v6.863h15.082v8.9H342.61v7.173H360.7v9.389H331.45Z" transform="translate(-92.492 -17.226)" fill="#223f99"/>
    <path id="Path_314" data-name="Path 314" d="M137.076,428.146H166.33v9.389H148.236V444.4h15.082v8.9H148.236v7.173h18.087v9.383H137.07V428.14Z" transform="translate(-23.722 -43.237)" fill="#223f99"/>
    <path id="Path_315" data-name="Path 315" d="M381.53,388.949l8.091-6.074c2.029,2.52,4.543,4.543,8.717,4.543,3.309,0,5.273-.982,5.273-3.315,0-1.777-1.351-2.643-4.11-3.561l-4.911-1.661c-6.074-2.023-10.365-5.7-10.365-12.569,0-8.22,6.8-12.452,14.229-12.452s11.78,2.637,14.236,5.525l-6.385,6.682a9.46,9.46,0,0,0-7.238-3c-2.695,0-4.052,1.228-4.052,2.882s.918,2.391,2.947,3.069l5.519,1.842c8.355,2.759,11.166,6.746,11.166,12.633,0,7.671-4.782,13.183-15.826,13.183-9.389,0-14.721-4.291-17.293-7.722Z" transform="translate(-110.21 -16.957)" fill="#223f99"/>
    <path id="Path_316" data-name="Path 316" d="M80.5,449v20.789H70.02v-41.4c0-.368.181-.678.859-.123L97.064,449V428.083h10.488v41.254c0,.491-.181.672-.859.123Z" transform="translate(0 -43.174)" fill="#223f99"/>
    <path id="Path_317" data-name="Path 317" d="M202.38,437.539H191.33V428.15h33.241v9.389H213.534v32.323h-11.16V437.539Z" transform="translate(-42.918 -43.24)" fill="#223f99"/>
    <path id="Path_318" data-name="Path 318" d="M331.45,449.374c0-12.271,9.809-20.834,21.189-20.834s21.183,8.562,21.183,20.834-9.809,20.892-21.183,20.892-21.189-8.62-21.189-20.892Zm31.58,0c0-6.4-3.774-11.373-10.391-11.373s-10.391,4.969-10.391,11.373,3.774,11.431,10.391,11.431S363.03,455.778,363.03,449.374Z" transform="translate(-92.492 -43.378)" fill="#223f99"/>
    <path id="Path_319" data-name="Path 319" d="M417.167,469.853H406V428.14h16.866c10.611,0,16.5,6.255,16.5,14.785,0,5.519-2.637,9.881-7.612,12.149l7.612,14.779H427.286l-6.32-13.066H417.16v13.066Zm5.15-21.59c3.8,0,5.822-1.9,5.822-5.338s-2.023-5.338-5.822-5.338h-5.15v10.675Z" transform="translate(-118.867 -43.237)" fill="#223f99"/>
    <path id="Path_320" data-name="Path 320" d="M490.659,428.146H502.75L488.882,446.24,504.4,469.853H491.215L481.276,454.7l-3.5,4.3v10.856H466.62V428.14h11.16v17.3l12.879-17.3Z" transform="translate(-140.314 -43.237)" fill="#223f99"/>
    <path id="Path_321" data-name="Path 321" d="M251.75,354.7c.065-.427.265-.349.517-.039L274.6,377s16.743-16.75,22.32-22.327c.3-.3.465-.394.53.032v41.558H286.464l-.026-17.784L274.9,391.054a.354.354,0,0,1-.549,0l-11.683-12.64v17.848H251.75V354.7Z" transform="translate(-64.295 -17.149)" fill="#223f99"/>
    <path id="Path_322" data-name="Path 322" d="M251.77,428.16h10.914v17.848l11.683-12.64a.352.352,0,0,1,.556,0l11.541,12.575.019-17.784H297.47v41.4c-.065.427-.31.368-.549.065l-22.3-22.2-22.294,22.2c-.252.31-.491.368-.556-.065v-41.4Z" transform="translate(-64.302 -43.244)" fill="#223f99"/>
    <g id="Group_906" data-name="Group 906" transform="translate(187.455 305.93)">
      <path id="Path_323" data-name="Path 323" d="M284.927,344.738,300.165,329.5l7.612,7.619-22.85,22.85h0l-3.987-8.885Z" transform="translate(-262.077 -314.269)" fill="#929497" fill-rule="evenodd"/>
      <path id="Path_324" data-name="Path 324" d="M284.927,325.332l7.619-7.612,7.619,7.612L284.927,340.57h0l-3.987-8.517Z" transform="translate(-262.077 -310.101)" fill="#6d6e70" fill-rule="evenodd"/>
      <path id="Path_325" data-name="Path 325" d="M284.927,321.161l-3.987-7.612,3.987-7.619,7.619,7.619-7.619,7.612Z" transform="translate(-262.077 -305.93)" fill="#b01117" fill-rule="evenodd"/>
      <path id="Path_326" data-name="Path 326" d="M274.6,344.738,259.369,329.5l-7.619,7.619,22.85,22.85h0Z" transform="translate(-251.75 -314.269)" fill="#bbbdbf" fill-rule="evenodd"/>
      <path id="Path_327" data-name="Path 327" d="M278.771,325.332l-7.612-7.612-7.619,7.612,15.231,15.238h0Z" transform="translate(-255.921 -310.101)" fill="#929497" fill-rule="evenodd"/>
      <path id="Path_328" data-name="Path 328" d="M282.942,321.161V305.93l-7.612,7.619,7.612,7.612Z" transform="translate(-260.092 -305.93)" fill="#ec1b2e" fill-rule="evenodd"/>
    </g>
  </g>
</svg>
